<svg viewBox="0 0 719 618" fill="none" xmlns="http://www.w3.org/2000/svg">
<path fill-rule="evenodd" clip-rule="evenodd" d="M426.755 -258.339C526.01 -253.623 630.416 -216.737 691.019 -139.942C747.053 -68.9359 709.403 31.8884 725.408 120.114C738.276 191.044 786.302 253.961 775.404 325.204C763.332 404.132 724.842 479.453 662.532 531.186C597.271 585.368 510.835 630.895 426.755 614.671C345.261 598.947 319.875 495.823 250.249 451.635C174.069 403.287 41.2528 429.785 6.43092 347.913C-27.6816 267.71 83.9568 197.257 106.308 113.209C131.067 20.1084 79.6084 -92.3667 143.094 -165.976C208.865 -242.236 324.689 -263.189 426.755 -258.339Z" fill="#baa4ee"/>
</svg>
